<mxfile host="Electron" modified="2023-08-18T11:47:47.018Z" agent="Mozilla/5.0 (Windows NT 10.0; Win64; x64) AppleWebKit/537.36 (KHTML, like Gecko) draw.io/21.4.0 Chrome/112.0.5615.204 Electron/24.5.1 Safari/537.36" etag="nhkajpddswQ79BjAA2Ky" version="21.4.0" type="device">
  <diagram name="Page-1" id="A-8IIcw6sCpZ_jcWEOyM">
    <mxGraphModel dx="1276" dy="606" grid="1" gridSize="10" guides="1" tooltips="1" connect="1" arrows="1" fold="1" page="1" pageScale="1" pageWidth="827" pageHeight="1169" math="0" shadow="0">
      <root>
        <mxCell id="0" />
        <mxCell id="1" parent="0" />
        <mxCell id="xZ4PxW3tCReLhFmM7rU1-3" value="" style="endArrow=classic;html=1;rounded=0;" parent="1" edge="1">
          <mxGeometry width="50" height="50" relative="1" as="geometry">
            <mxPoint x="408" y="200" as="sourcePoint" />
            <mxPoint x="408" y="233" as="targetPoint" />
          </mxGeometry>
        </mxCell>
        <mxCell id="xZ4PxW3tCReLhFmM7rU1-4" value="Has receivable" style="html=1;whiteSpace=wrap;aspect=fixed;shape=isoRectangle;" parent="1" vertex="1">
          <mxGeometry x="333" y="231" width="150" height="90" as="geometry" />
        </mxCell>
        <mxCell id="xZ4PxW3tCReLhFmM7rU1-5" value="Is billable" style="html=1;whiteSpace=wrap;aspect=fixed;shape=isoRectangle;" parent="1" vertex="1">
          <mxGeometry x="333" y="350" width="150" height="90" as="geometry" />
        </mxCell>
        <mxCell id="xZ4PxW3tCReLhFmM7rU1-6" value="Is internal" style="html=1;whiteSpace=wrap;aspect=fixed;shape=isoRectangle;" parent="1" vertex="1">
          <mxGeometry x="333" y="470" width="150" height="90" as="geometry" />
        </mxCell>
        <mxCell id="xZ4PxW3tCReLhFmM7rU1-7" value="&lt;font style=&quot;font-size: 18px;&quot;&gt;&lt;b&gt;Subscription &lt;/b&gt;&lt;br&gt;[bill]&lt;/font&gt;" style="text;html=1;strokeColor=none;fillColor=none;align=left;verticalAlign=middle;whiteSpace=wrap;rounded=0;" parent="1" vertex="1">
          <mxGeometry x="50" y="80" width="240" height="40" as="geometry" />
        </mxCell>
        <mxCell id="xZ4PxW3tCReLhFmM7rU1-8" value="No" style="text;html=1;strokeColor=none;fillColor=none;align=center;verticalAlign=middle;whiteSpace=wrap;rounded=0;" parent="1" vertex="1">
          <mxGeometry x="410" y="321" width="28" height="30" as="geometry" />
        </mxCell>
        <mxCell id="xZ4PxW3tCReLhFmM7rU1-10" value="" style="endArrow=classic;html=1;rounded=0;entryX=0.503;entryY=0.033;entryDx=0;entryDy=0;entryPerimeter=0;" parent="1" edge="1">
          <mxGeometry width="50" height="50" relative="1" as="geometry">
            <mxPoint x="408.2597152751059" y="319" as="sourcePoint" />
            <mxPoint x="408.45000000000005" y="351.97" as="targetPoint" />
          </mxGeometry>
        </mxCell>
        <mxCell id="xZ4PxW3tCReLhFmM7rU1-11" value="" style="endArrow=classic;html=1;rounded=0;entryX=0.503;entryY=0.033;entryDx=0;entryDy=0;entryPerimeter=0;" parent="1" edge="1">
          <mxGeometry width="50" height="50" relative="1" as="geometry">
            <mxPoint x="407.76" y="439" as="sourcePoint" />
            <mxPoint x="407.76" y="472" as="targetPoint" />
          </mxGeometry>
        </mxCell>
        <mxCell id="xZ4PxW3tCReLhFmM7rU1-12" value="Yes" style="text;html=1;strokeColor=none;fillColor=none;align=center;verticalAlign=middle;whiteSpace=wrap;rounded=0;" parent="1" vertex="1">
          <mxGeometry x="398" y="440" width="60" height="30" as="geometry" />
        </mxCell>
        <mxCell id="xZ4PxW3tCReLhFmM7rU1-13" value="No" style="text;html=1;strokeColor=none;fillColor=none;align=center;verticalAlign=middle;whiteSpace=wrap;rounded=0;" parent="1" vertex="1">
          <mxGeometry x="408" y="560" width="38" height="30" as="geometry" />
        </mxCell>
        <mxCell id="xZ4PxW3tCReLhFmM7rU1-15" value="" style="endArrow=classic;html=1;rounded=0;entryX=0.5;entryY=0;entryDx=0;entryDy=0;" parent="1" target="NfbViJitlXMY-W9qtgMW-3" edge="1">
          <mxGeometry width="50" height="50" relative="1" as="geometry">
            <mxPoint x="408" y="558" as="sourcePoint" />
            <mxPoint x="408" y="591" as="targetPoint" />
          </mxGeometry>
        </mxCell>
        <mxCell id="xZ4PxW3tCReLhFmM7rU1-16" value="" style="endArrow=classic;html=1;rounded=0;entryX=0.503;entryY=0.033;entryDx=0;entryDy=0;entryPerimeter=0;exitX=0.5;exitY=1;exitDx=0;exitDy=0;" parent="1" source="NfbViJitlXMY-W9qtgMW-3" edge="1">
          <mxGeometry width="50" height="50" relative="1" as="geometry">
            <mxPoint x="407.76" y="667" as="sourcePoint" />
            <mxPoint x="407.76" y="700" as="targetPoint" />
          </mxGeometry>
        </mxCell>
        <mxCell id="xZ4PxW3tCReLhFmM7rU1-17" value="" style="endArrow=classic;html=1;rounded=0;exitX=1.001;exitY=0.5;exitDx=0;exitDy=0;exitPerimeter=0;edgeStyle=orthogonalEdgeStyle;" parent="1" source="xZ4PxW3tCReLhFmM7rU1-4" edge="1">
          <mxGeometry width="50" height="50" relative="1" as="geometry">
            <mxPoint x="634" y="521" as="sourcePoint" />
            <mxPoint x="408" y="681" as="targetPoint" />
            <Array as="points">
              <mxPoint x="554" y="276" />
              <mxPoint x="554" y="681" />
            </Array>
          </mxGeometry>
        </mxCell>
        <mxCell id="xZ4PxW3tCReLhFmM7rU1-18" value="Yes" style="text;html=1;strokeColor=none;fillColor=none;align=center;verticalAlign=middle;whiteSpace=wrap;rounded=0;" parent="1" vertex="1">
          <mxGeometry x="484" y="251" width="60" height="30" as="geometry" />
        </mxCell>
        <mxCell id="xZ4PxW3tCReLhFmM7rU1-19" value="" style="endArrow=classic;html=1;rounded=0;exitX=0.007;exitY=0.501;exitDx=0;exitDy=0;exitPerimeter=0;edgeStyle=orthogonalEdgeStyle;" parent="1" source="xZ4PxW3tCReLhFmM7rU1-5" edge="1">
          <mxGeometry width="50" height="50" relative="1" as="geometry">
            <mxPoint x="333.35" y="394.46000000000004" as="sourcePoint" />
            <mxPoint x="408" y="681" as="targetPoint" />
            <Array as="points">
              <mxPoint x="276" y="395" />
              <mxPoint x="276" y="681" />
            </Array>
          </mxGeometry>
        </mxCell>
        <mxCell id="xZ4PxW3tCReLhFmM7rU1-20" value="No" style="text;html=1;strokeColor=none;fillColor=none;align=center;verticalAlign=middle;whiteSpace=wrap;rounded=0;" parent="1" vertex="1">
          <mxGeometry x="290" y="371" width="43" height="19" as="geometry" />
        </mxCell>
        <mxCell id="xZ4PxW3tCReLhFmM7rU1-22" value="Yes" style="text;html=1;strokeColor=none;fillColor=none;align=center;verticalAlign=middle;whiteSpace=wrap;rounded=0;" parent="1" vertex="1">
          <mxGeometry x="478" y="484" width="34" height="30" as="geometry" />
        </mxCell>
        <mxCell id="xZ4PxW3tCReLhFmM7rU1-23" value="" style="endArrow=classic;html=1;rounded=0;exitX=1.001;exitY=0.5;exitDx=0;exitDy=0;exitPerimeter=0;edgeStyle=orthogonalEdgeStyle;" parent="1" source="xZ4PxW3tCReLhFmM7rU1-6" edge="1">
          <mxGeometry width="50" height="50" relative="1" as="geometry">
            <mxPoint x="574" y="501" as="sourcePoint" />
            <mxPoint x="408" y="671" as="targetPoint" />
            <Array as="points">
              <mxPoint x="514" y="515" />
              <mxPoint x="514" y="671" />
            </Array>
          </mxGeometry>
        </mxCell>
        <mxCell id="NfbViJitlXMY-W9qtgMW-3" value="Create receivable" style="rounded=1;whiteSpace=wrap;html=1;" parent="1" vertex="1">
          <mxGeometry x="348" y="600" width="120" height="60" as="geometry" />
        </mxCell>
        <mxCell id="NfbViJitlXMY-W9qtgMW-6" value="" style="ellipse;fillColor=strokeColor;html=1;" parent="1" vertex="1">
          <mxGeometry x="393" y="170" width="30" height="30" as="geometry" />
        </mxCell>
        <mxCell id="NfbViJitlXMY-W9qtgMW-8" value="" style="ellipse;html=1;shape=endState;fillColor=strokeColor;" parent="1" vertex="1">
          <mxGeometry x="392" y="700" width="30" height="30" as="geometry" />
        </mxCell>
      </root>
    </mxGraphModel>
  </diagram>
</mxfile>
